<svg xmlns="http://www.w3.org/2000/svg" xmlns:xlink="http://www.w3.org/1999/xlink" width="40" zoomAndPan="magnify" viewBox="0 0 30 30.000001" height="40" preserveAspectRatio="xMidYMid meet" version="1.0"><defs><clipPath id="0624b8e2f4"><path d="M 3.292969 1.453125 L 15 1.453125 L 15 21 L 3.292969 21 Z M 3.292969 1.453125 " clip-rule="nonzero"/></clipPath><clipPath id="0c9ffbe18f"><path d="M 4 14 L 26 14 L 26 27.582031 L 4 27.582031 Z M 4 14 " clip-rule="nonzero"/></clipPath><clipPath id="176fea1e54"><path d="M 15 1.453125 L 26.519531 1.453125 L 26.519531 21 L 15 21 Z M 15 1.453125 " clip-rule="nonzero"/></clipPath></defs><g clip-path="url(#0624b8e2f4)"><path fill="#0bc6e7" d="M 3.308594 7.75 L 14.179688 1.453125 L 14.183594 6.25 L 12.101562 7.445312 L 12.101562 5.070312 L 5.394531 8.957031 L 5.394531 16.738281 L 12.101562 12.847656 L 12.101562 10.503906 L 14.183594 9.304688 L 14.1875 14.050781 L 3.3125 20.355469 Z M 3.308594 7.75 " fill-opacity="1" fill-rule="nonzero"/></g><path fill="#0cc0df" d="M 10.0625 11.664062 L 7.4375 13.183594 L 7.429688 10.136719 L 10.0625 8.621094 Z M 10.0625 11.664062 " fill-opacity="1" fill-rule="nonzero"/><g clip-path="url(#0c9ffbe18f)"><path fill="#0cc0df" d="M 8.507812 18.6875 L 17.292969 23.78125 L 14.898438 25.164062 L 8.191406 21.277344 L 9.285156 20.644531 L 7.207031 19.4375 L 4.03125 21.28125 L 14.902344 27.582031 L 21.449219 23.78125 L 12.664062 18.683594 L 14.902344 17.386719 L 21.609375 21.277344 L 20.378906 21.996094 L 22.453125 23.207031 L 25.773438 21.273438 L 14.902344 14.972656 Z M 8.507812 18.6875 " fill-opacity="1" fill-rule="nonzero"/></g><g clip-path="url(#176fea1e54)"><path fill="#0cc0df" d="M 26.496094 12.933594 L 17.707031 7.84375 L 17.707031 5.070312 L 24.414062 8.957031 L 24.414062 10.230469 L 26.496094 11.4375 L 26.496094 7.753906 L 15.625 1.453125 L 15.625 9.050781 L 24.421875 14.144531 L 24.414062 16.738281 L 17.707031 12.847656 L 17.707031 11.441406 L 15.625 10.242188 L 15.621094 14.058594 L 26.492188 20.355469 Z M 26.496094 12.933594 " fill-opacity="1" fill-rule="nonzero"/></g></svg>