<svg xmlns="http://www.w3.org/2000/svg" xmlns:xlink="http://www.w3.org/1999/xlink" width="40" zoomAndPan="magnify" viewBox="0 0 30 30.000001" height="40" preserveAspectRatio="xMidYMid meet" version="1.0"><defs><clipPath id="2923826fbf"><path d="M 1.984375 3.917969 L 28.007812 3.917969 L 28.007812 21.421875 L 1.984375 21.421875 Z M 1.984375 3.917969 " clip-rule="nonzero"/></clipPath><clipPath id="d0811396b8"><path d="M 9.402344 26.605469 L 20.695312 26.605469 L 20.695312 27.871094 L 9.402344 27.871094 Z M 9.402344 26.605469 " clip-rule="nonzero"/></clipPath><clipPath id="25af55effd"><path d="M 12 25 L 18 25 L 18 27.871094 L 12 27.871094 Z M 12 25 " clip-rule="nonzero"/></clipPath><clipPath id="6e36667e74"><path d="M 12 24.339844 L 17.789062 24.339844 L 17.789062 27.871094 L 12 27.871094 Z M 12 24.339844 " clip-rule="nonzero"/></clipPath><clipPath id="f3e16b9285"><path d="M 1.984375 20.125 L 28.007812 20.125 L 28.007812 25.957031 L 1.984375 25.957031 Z M 1.984375 20.125 " clip-rule="nonzero"/></clipPath></defs><g clip-path="url(#2923826fbf)"><path fill="#7c3ea3" d="M 3.066406 20.257812 L 26.921875 20.257812 L 26.921875 6.097656 C 26.921875 5.496094 26.433594 5.007812 25.835938 5.007812 L 4.152344 5.007812 C 3.554688 5.007812 3.066406 5.496094 3.066406 6.097656 Z M 27.464844 21.347656 L 2.527344 21.347656 C 2.226562 21.347656 1.984375 21.101562 1.984375 20.804688 L 1.984375 6.097656 C 1.984375 4.894531 2.957031 3.917969 4.152344 3.917969 L 25.835938 3.917969 C 27.03125 3.917969 28.003906 4.894531 28.003906 6.097656 L 28.003906 20.804688 C 28.003906 21.101562 27.761719 21.347656 27.464844 21.347656 " fill-opacity="1" fill-rule="nonzero"/></g><g clip-path="url(#d0811396b8)"><path fill="#7c3ea3" d="M 19.875 27.882812 L 10.117188 27.882812 C 9.816406 27.882812 9.574219 27.640625 9.574219 27.339844 C 9.574219 27.039062 9.816406 26.792969 10.117188 26.792969 L 19.875 26.792969 C 20.171875 26.792969 20.417969 27.039062 20.417969 27.339844 C 20.417969 27.640625 20.171875 27.882812 19.875 27.882812 " fill-opacity="1" fill-rule="nonzero"/></g><g clip-path="url(#25af55effd)"><path fill="#ffffff" d="M 17.164062 27.339844 L 12.828125 27.339844 L 12.828125 25.160156 L 17.164062 25.160156 L 17.164062 27.339844 " fill-opacity="1" fill-rule="nonzero"/></g><g clip-path="url(#6e36667e74)"><path fill="#7c3ea3" d="M 13.367188 26.792969 L 16.621094 26.792969 L 16.621094 25.707031 L 13.367188 25.707031 Z M 17.164062 27.882812 L 12.828125 27.882812 C 12.527344 27.882812 12.285156 27.640625 12.285156 27.339844 L 12.285156 25.160156 C 12.285156 24.859375 12.527344 24.617188 12.828125 24.617188 L 17.164062 24.617188 C 17.460938 24.617188 17.707031 24.859375 17.707031 25.160156 L 17.707031 27.339844 C 17.707031 27.640625 17.460938 27.882812 17.164062 27.882812 " fill-opacity="1" fill-rule="nonzero"/></g><path fill="#d2b0dd" d="M 2.527344 23.527344 L 2.527344 20.804688 L 27.464844 20.804688 L 27.464844 23.527344 C 27.464844 24.429688 26.734375 25.160156 25.835938 25.160156 L 4.152344 25.160156 C 3.253906 25.160156 2.527344 24.429688 2.527344 23.527344 " fill-opacity="1" fill-rule="nonzero"/><g clip-path="url(#f3e16b9285)"><path fill="#7c3ea3" d="M 26.714844 25.445312 C 26.53125 25.445312 26.355469 25.351562 26.257812 25.191406 C 26.183594 25.074219 26.15625 24.925781 26.183594 24.785156 C 26.214844 24.648438 26.296875 24.523438 26.417969 24.445312 C 26.417969 24.445312 26.421875 24.445312 26.421875 24.441406 C 26.667969 24.285156 27.011719 24.359375 27.171875 24.605469 C 27.332031 24.855469 27.261719 25.191406 27.007812 25.359375 C 26.921875 25.414062 26.820312 25.445312 26.714844 25.445312 Z M 24.597656 25.707031 L 4.152344 25.707031 C 2.960938 25.707031 1.984375 24.730469 1.984375 23.527344 L 1.984375 20.804688 C 1.984375 20.660156 2.042969 20.519531 2.140625 20.414062 C 2.246094 20.320312 2.386719 20.257812 2.527344 20.257812 L 27.464844 20.257812 C 27.605469 20.257812 27.746094 20.320312 27.847656 20.414062 C 27.945312 20.519531 28.003906 20.660156 28.003906 20.804688 L 28.003906 22.980469 C 28.003906 23.28125 27.761719 23.527344 27.464844 23.527344 C 27.164062 23.527344 26.921875 23.28125 26.921875 22.980469 L 26.921875 21.347656 L 3.066406 21.347656 L 3.066406 23.527344 C 3.066406 24.125 3.558594 24.617188 4.152344 24.617188 L 24.597656 24.617188 C 24.898438 24.617188 25.136719 24.859375 25.136719 25.160156 C 25.136719 25.460938 24.898438 25.707031 24.597656 25.707031 " fill-opacity="1" fill-rule="nonzero"/></g><path fill="#7c3ea3" d="M 15.539062 23.527344 L 14.453125 23.527344 C 14.152344 23.527344 13.910156 23.28125 13.910156 22.980469 C 13.910156 22.679688 14.152344 22.4375 14.453125 22.4375 L 15.539062 22.4375 C 15.835938 22.4375 16.078125 22.679688 16.078125 22.980469 C 16.078125 23.28125 15.835938 23.527344 15.539062 23.527344 " fill-opacity="1" fill-rule="nonzero"/><path fill="#5eb4e8" d="M 7.144531 15.355469 C 6.09375 15.355469 5.238281 14.5 5.238281 13.449219 L 5.238281 10.453125 C 5.238281 10.152344 5.480469 9.910156 5.78125 9.910156 C 6.078125 9.910156 6.320312 10.152344 6.320312 10.453125 L 6.320312 13.449219 C 6.320312 13.902344 6.6875 14.265625 7.144531 14.265625 C 7.597656 14.265625 7.964844 13.902344 7.964844 13.449219 L 7.964844 10.453125 C 7.964844 10.152344 8.207031 9.910156 8.507812 9.910156 C 8.808594 9.910156 9.050781 10.152344 9.050781 10.453125 L 9.050781 13.449219 C 9.050781 14.5 8.195312 15.355469 7.144531 15.355469 " fill-opacity="1" fill-rule="nonzero"/><path fill="#5eb4e8" d="M 11.660156 13.179688 C 11.453125 13.179688 11.265625 13.0625 11.171875 12.878906 L 10.082031 10.699219 C 9.949219 10.429688 10.054688 10.101562 10.324219 9.96875 C 10.589844 9.832031 10.917969 9.941406 11.050781 10.210938 L 11.660156 11.421875 L 12.265625 10.210938 C 12.398438 9.941406 12.726562 9.832031 12.996094 9.96875 C 13.261719 10.101562 13.367188 10.429688 13.234375 10.699219 L 12.144531 12.878906 C 12.050781 13.0625 11.863281 13.179688 11.660156 13.179688 " fill-opacity="1" fill-rule="nonzero"/><path fill="#5eb4e8" d="M 10.566406 15.355469 C 10.484375 15.355469 10.402344 15.335938 10.324219 15.296875 C 10.054688 15.164062 9.949219 14.835938 10.082031 14.566406 L 11.171875 12.386719 C 11.359375 12.019531 11.957031 12.019531 12.144531 12.386719 L 13.234375 14.566406 C 13.367188 14.835938 13.261719 15.164062 12.996094 15.296875 C 12.726562 15.433594 12.398438 15.324219 12.265625 15.058594 L 11.660156 13.84375 L 11.050781 15.058594 C 10.957031 15.246094 10.765625 15.355469 10.566406 15.355469 " fill-opacity="1" fill-rule="nonzero"/><path fill="#f9a813" d="M 20.785156 15.355469 C 19.734375 15.355469 18.878906 14.5 18.878906 13.449219 L 18.878906 10.453125 C 18.878906 10.152344 19.125 9.910156 19.421875 9.910156 C 19.722656 9.910156 19.964844 10.152344 19.964844 10.453125 L 19.964844 13.449219 C 19.964844 13.902344 20.332031 14.265625 20.785156 14.265625 C 21.242188 14.265625 21.609375 13.902344 21.609375 13.449219 L 21.609375 10.453125 C 21.609375 10.152344 21.851562 9.910156 22.152344 9.910156 C 22.449219 9.910156 22.691406 10.152344 22.691406 10.453125 L 22.691406 13.449219 C 22.691406 14.5 21.835938 15.355469 20.785156 15.355469 " fill-opacity="1" fill-rule="nonzero"/><path fill="#f9a813" d="M 24.210938 15.355469 C 23.910156 15.355469 23.667969 15.113281 23.667969 14.8125 L 23.667969 10.453125 C 23.667969 10.152344 23.910156 9.910156 24.210938 9.910156 C 24.511719 9.910156 24.753906 10.152344 24.753906 10.453125 L 24.753906 14.8125 C 24.753906 15.113281 24.511719 15.355469 24.210938 15.355469 " fill-opacity="1" fill-rule="nonzero"/><path fill="#f8a1ad" d="M 17.660156 8.820312 L 14.933594 16.445312 L 17.660156 8.820312 " fill-opacity="1" fill-rule="nonzero"/><path fill="#ee275c" d="M 14.933594 16.988281 C 14.871094 16.988281 14.808594 16.980469 14.75 16.957031 C 14.46875 16.855469 14.320312 16.542969 14.421875 16.261719 L 17.152344 8.636719 C 17.253906 8.351562 17.5625 8.203125 17.84375 8.308594 C 18.125 8.410156 18.273438 8.722656 18.171875 9.003906 L 15.441406 16.628906 C 15.363281 16.851562 15.15625 16.988281 14.933594 16.988281 " fill-opacity="1" fill-rule="nonzero"/><path fill="#ee275c" d="M 24.210938 7.1875 L 5.78125 7.1875 C 5.480469 7.1875 5.238281 6.941406 5.238281 6.640625 C 5.238281 6.339844 5.480469 6.097656 5.78125 6.097656 L 24.210938 6.097656 C 24.511719 6.097656 24.753906 6.339844 24.753906 6.640625 C 24.753906 6.941406 24.511719 7.1875 24.210938 7.1875 " fill-opacity="1" fill-rule="nonzero"/><path fill="#ee275c" d="M 24.210938 19.167969 L 5.78125 19.167969 C 5.480469 19.167969 5.238281 18.925781 5.238281 18.625 C 5.238281 18.324219 5.480469 18.082031 5.78125 18.082031 L 24.210938 18.082031 C 24.511719 18.082031 24.753906 18.324219 24.753906 18.625 C 24.753906 18.925781 24.511719 19.167969 24.210938 19.167969 " fill-opacity="1" fill-rule="nonzero"/></svg>